<?xml version="1.0" standalone="no"?>
<!DOCTYPE svg PUBLIC "-//W3C//DTD SVG 20010904//EN"
 "http://www.w3.org/TR/2001/REC-SVG-20010904/DTD/svg10.dtd">
<svg version="1.0" xmlns="http://www.w3.org/2000/svg"
 width="512.000000pt" height="512.000000pt" viewBox="0 0 512.000000 512.000000"
 preserveAspectRatio="xMidYMid meet">

<g transform="translate(0.000000,512.000000) scale(0.100000,-0.100000)"
fill="#000000" stroke="none">
<path d="M1810 4970 l0 -150 -302 -2 -303 -3 -3 -147 -3 -147 -147 -3 -147 -3
-3 -147 -3 -147 -147 -3 -147 -3 -3 -147 -3 -147 -147 -3 -147 -3 -3 -302 -2
-303 -150 0 -150 0 0 -750 0 -750 150 0 150 0 2 -302 3 -303 147 -3 147 -3 3
-147 3 -147 147 -3 147 -3 3 -147 3 -147 147 -3 147 -3 3 -147 3 -147 303 -3
302 -2 0 -150 0 -150 750 0 750 0 0 150 0 150 303 2 302 3 3 147 3 147 147 3
147 3 3 147 3 147 147 3 147 3 3 147 3 147 147 3 147 3 3 303 2 302 150 0 150
0 0 750 0 750 -150 0 -150 0 -2 303 -3 302 -147 3 -147 3 -3 147 -3 147 -297
3 -298 2 0 -150 0 -149 -152 -3 -153 -3 -3 -152 -3 -153 -149 0 -150 0 0 -150
0 -150 -150 0 -150 0 0 -150 0 -150 -150 0 -150 0 0 905 0 905 -150 0 -150 0
0 150 0 150 -300 0 -300 0 0 -150z m600 -1055 l0 -905 150 0 150 0 0 -150 0
-150 150 0 150 0 0 150 0 150 150 0 150 0 0 150 0 150 150 0 149 0 3 153 3
152 148 3 147 3 0 144 c0 93 4 146 11 151 6 3 143 3 305 -1 l294 -7 0 -299 0
-299 150 0 150 0 0 -750 0 -750 -150 0 -150 0 0 -300 0 -300 -150 0 -149 0 -3
-152 -3 -153 -152 -3 -153 -3 0 -149 0 -150 -300 0 -300 0 0 -150 0 -150 -750
0 -750 0 0 150 0 150 -300 0 -300 0 0 150 0 149 -152 3 -153 3 -3 153 -3 152
-149 0 -150 0 0 300 0 300 -150 0 -150 0 0 750 0 750 150 0 150 0 0 300 0 300
150 0 149 0 3 153 3 152 153 3 152 3 0 149 0 150 300 0 300 0 0 150 0 150 300
0 300 0 0 -905z"/>
<path d="M1810 4365 l0 -145 145 0 145 0 0 145 0 145 -145 0 -145 0 0 -145z"/>
<path d="M3920 3465 l0 -145 145 0 145 0 0 145 0 145 -145 0 -145 0 0 -145z"/>
<path d="M610 2860 l0 -150 145 0 145 0 0 150 0 150 -145 0 -145 0 0 -150z"/>
<path d="M610 1955 l0 -145 145 0 145 0 0 145 0 145 -145 0 -145 0 0 -145z"/>
<path d="M3920 1955 l0 -145 145 0 145 0 0 145 0 145 -145 0 -145 0 0 -145z"/>
<path d="M3020 1355 l0 -145 145 0 145 0 0 145 0 145 -145 0 -145 0 0 -145z"/>
<path d="M2110 755 l0 -145 150 0 150 0 0 145 0 145 -150 0 -150 0 0 -145z"/>
</g>
</svg>
